<svg xmlns="http://www.w3.org/2000/svg" xmlns:xlink="http://www.w3.org/1999/xlink" id="Layer_1" width="16" height="16" x="0" style="enable-background:new 0 0 16 16" y="0" version="1.1" viewBox="0 0 16 16" xml:space="preserve"><g><path style="fill:#008cd2" d="M13,8c0-0.552-0.448-1-1-1H8.75C8.75,7,9,6,9,4.5C9,3.125,8,2,7.5,2S7,3,7,3c0,3-1.5,5-2.5,5H3v5 c0,0,0.5,0,1,0c1,0,1.5,1,3,1c0.254,0,3.5,0,3.5,0c0.552,0,1-0.448,1-1s-0.448-1-1-1H11c0.552,0,1-0.448,1-1 c0-0.208-0.063-0.399-0.171-0.56c0.39-0.137,0.671-0.504,0.671-0.94c0-0.208-0.063-0.399-0.171-0.56C12.719,8.804,13,8.437,13,8z"/></g></svg>