<svg xmlns="http://www.w3.org/2000/svg" xmlns:xlink="http://www.w3.org/1999/xlink" id="Layer_1" width="16" height="16" x="0" style="enable-background:new 0 0 16 16" y="0" version="1.1" viewBox="0 0 16 16" xml:space="preserve"><g><path style="fill:#8db9cc" d="M4,5h1V4H4V5z M6,5h1V4H6V5z M8,5h1V4H8V5z M10,4v1h1V4H10z M4,7h1V6H4V7z M6,7h1V6H6V7z M8,7h1V6H8 V7z M10,7h1V6h-1V7z M4,9h1V8H4V9z M6,9h1V8H6V9z M8,9h1V8H8V9z M10,9h1V8h-1V9z M4,11h1v-1H4V11z M6,11h1v-1H6V11z M8,11h1v-1H8 V11z M10,11h1v-1h-1V11z"/></g></svg>