<svg xmlns="http://www.w3.org/2000/svg" xmlns:xlink="http://www.w3.org/1999/xlink" id="Layer_2" width="16" height="16" x="0" style="enable-background:new 0 0 16 16" y="0" version="1.1" viewBox="0 0 16 16" xml:space="preserve"><path style="fill:#dabc70" d="M11,5l-1-2H6L5,5L1,6v7h14V6L11,5z M8,11.998c-1.933,0-3.5-1.566-3.5-3.5c0-1.933,1.567-3.5,3.5-3.5	c1.934,0,3.5,1.567,3.5,3.5C11.5,10.432,9.934,11.998,8,11.998z M4,3.5H2v1.251l2-0.5V3.5z M8,5.999c-1.381,0-2.5,1.119-2.5,2.5	c0,1.381,1.119,2.5,2.5,2.5s2.5-1.119,2.5-2.5C10.5,7.118,9.381,5.999,8,5.999z"/></svg>