<svg xmlns="http://www.w3.org/2000/svg" xmlns:xlink="http://www.w3.org/1999/xlink" id="Shape_2_1_" width="16" height="16" x="0" style="enable-background:new 0 0 16 16" y="0" version="1.1" viewBox="0 0 16 16" xml:space="preserve"><path style="fill:#1e4bbc" d="M3.775,3.775C2.688,4.859,2,6.343,2,8c0,2.972,2.164,5.433,5,5.91v-2.052C5.278,11.412,4,9.861,4,8	c0-1.105,0.458-2.095,1.185-2.815L7,7V2H2L3.775,3.775z M14,8c0-2.972-2.164-5.433-5-5.91v2.052C10.722,4.588,12,6.139,12,8	c0,1.105-0.458,2.095-1.185,2.815l-1.67-1.67C9.052,9.052,9,9,9,9v5h5c0,0-0.81-0.81-1.775-1.775C13.312,11.14,14,9.657,14,8z"/></svg>