<svg xmlns="http://www.w3.org/2000/svg" xmlns:xlink="http://www.w3.org/1999/xlink" id="Layer_3" width="16" height="16" x="0" style="enable-background:new 0 0 16 16" y="0" version="1.1" viewBox="0 0 16 16" xml:space="preserve"><path style="fill:#f27d82" d="M13,10h-2c-1.104,0-2-0.896-2-2c0-2.209-1.791-4-4-4H2v2h3c1.104,0,2,0.896,2,2c0,2.209,1.791,4,4,4	h2v1l2-2l-2-2V10z M11,6h2v1l2-2l-2-2v1h-2c-0.843,0-1.622,0.263-2.267,0.708c0.447,0.506,0.786,1.1,1,1.756	C10.079,6.179,10.517,6,11,6z M5,10H2v2h3c0.843,0,1.622-0.264,2.267-0.708c-0.447-0.506-0.786-1.1-1-1.756	C5.921,9.821,5.483,10,5,10z"/></svg>