<svg xmlns="http://www.w3.org/2000/svg" xmlns:xlink="http://www.w3.org/1999/xlink" id="Layer_1" width="16" height="16" x="0" style="enable-background:new 0 0 16 16" y="0" version="1.1" viewBox="0 0 16 16" xml:space="preserve"><path style="fill:#7d145e" d="M10.134,9.134C10.673,8.393,11,7.487,11,6.5C11,4.015,8.985,2,6.5,2S2,4.015,2,6.5S4.015,11,6.5,11	c0.987,0,1.893-0.327,2.634-0.866L13,14l1-1L10.134,9.134z M6.5,10C4.567,10,3,8.433,3,6.5S4.567,3,6.5,3C8.434,3,10,4.567,10,6.5	S8.434,10,6.5,10z M4,7h5V6H4V7z"/></svg>